<?xml version="1.0" encoding="UTF-8" standalone="no"?>
<svg
   xmlns:dc="http://purl.org/dc/elements/1.1/"
   xmlns:cc="http://creativecommons.org/ns#"
   xmlns:rdf="http://www.w3.org/1999/02/22-rdf-syntax-ns#"
   xmlns:svg="http://www.w3.org/2000/svg"
   xmlns="http://www.w3.org/2000/svg"
   xmlns:sodipodi="http://sodipodi.sourceforge.net/DTD/sodipodi-0.dtd"
   xmlns:inkscape="http://www.inkscape.org/namespaces/inkscape"
   id="svg3799"
   version="1.1"
   viewBox="0 0 2000 500"
   height="500"
   width="2000"
   sodipodi:docname="bootstrap-name.svg"
   inkscape:version="0.92.2 (5c3e80d, 2017-08-06)">
  <metadata
     id="metadata34">
    <rdf:RDF>
      <cc:Work
         rdf:about="">
        <dc:format>image/svg+xml</dc:format>
        <dc:type
           rdf:resource="http://purl.org/dc/dcmitype/StillImage" />
      </cc:Work>
    </rdf:RDF>
  </metadata>
  <defs
     id="defs32" />
  <sodipodi:namedview
     pagecolor="#ffffff"
     bordercolor="#666666"
     borderopacity="1"
     objecttolerance="10"
     gridtolerance="10"
     guidetolerance="10"
     inkscape:pageopacity="0"
     inkscape:pageshadow="2"
     inkscape:window-width="2160"
     inkscape:window-height="1346"
     id="namedview30"
     showgrid="false"
     showguides="true"
     inkscape:guide-bbox="true"
     inkscape:zoom="1.0105"
     inkscape:cx="886.0911"
     inkscape:cy="389.43266"
     inkscape:window-x="-11"
     inkscape:window-y="-11"
     inkscape:window-maximized="1"
     inkscape:current-layer="svg3799">
    <sodipodi:guide
       position="618.76217,250.16395"
       orientation="0,1"
       id="guide36"
       inkscape:locked="false" />
    <sodipodi:guide
       position="1402.5235,297.87234"
       orientation="0,1"
       id="guide38"
       inkscape:locked="false" />
    <sodipodi:guide
       position="876.42256,136.44236"
       orientation="0,1"
       id="guide40"
       inkscape:locked="false" />
    <sodipodi:guide
       position="1092.5285,216.72439"
       orientation="0,1"
       id="guide42"
       inkscape:locked="false" />
    <sodipodi:guide
       position="777.92553,344.75507"
       orientation="0,1"
       id="guide46"
       inkscape:locked="false" />
    <sodipodi:guide
       position="499.7526,426.52152"
       orientation="1,0"
       id="guide82"
       inkscape:locked="false" />
    <sodipodi:guide
       position="720.43543,375.06185"
       orientation="1,0"
       id="guide84"
       inkscape:locked="false" />
  </sodipodi:namedview>
  <title
     id="title23">Bootstrap Brand</title>
  <path
     id="Bootstrap-text"
     d="m 803.69606,363.54705 c 13.93333,0 26.31833,-2.187 37.155,-6.561 10.39054,-4.02886 19.37937,-11.00263 25.864,-20.066 6.408,-9 9.61233,-19.70633 9.613,-32.119 0,-14.444 -4.24733,-26.168 -12.742,-35.172 -8.49467,-9.004 -19.608,-14.26833 -33.34,-15.793 v -1.679 c 10.476,-2.644 18.91933,-7.832 25.33,-15.564 6.41067,-7.732 9.615,-17.752 9.613,-30.06 0,-15.96867 -5.51867,-28.50633 -16.556,-37.613 -11.03733,-9.10667 -25.65967,-13.65867 -43.867,-13.656 h -84.383 v 208.283 z m -7.019,-179.6 c 9.66333,0 17.41967,2.44133 23.269,7.324 5.84933,4.88267 8.774,12.05433 8.774,21.515 0,20.042 -14.34333,30.062 -43.03,30.06 h -28.534 v -58.9 h 39.521 z m 2.746,85.907 c 12.20733,0 21.795,2.87367 28.763,8.621 6.968,5.74733 10.452,14.014 10.452,24.8 0.15901,5.32744 -1.04904,10.60684 -3.509,15.335 -2.35246,4.23288 -5.94778,7.64145 -10.3,9.765 -4.84229,2.39268 -10.00871,4.06372 -15.335,4.96 -6.65689,1.09301 -13.39643,1.60328 -20.142,1.525 h -32.2 v -65 h 42.267 z m 93.47,6.409 v 12.512 c 0,23.498 6.35767,42.29167 19.073,56.381 12.71533,14.08933 30.568,21.134 53.558,21.134 22.98934,0 40.79124,-7.04467 53.40594,-21.134 12.6147,-14.08933 18.9217,-32.934 18.921,-56.534 v -12.508 c 0,-22.786 -6.3577,-41.27467 -19.073,-55.466 -12.7153,-14.19133 -30.4666,-21.28667 -53.25394,-21.286 -22.788,0 -40.588,7.121 -53.4,21.363 -12.812,14.242 -19.22233,32.756 -19.231,55.542 v 0 z m 99.48704,-35.248 c 6.1033,8.85 9.1549,20.65 9.1549,35.4 v 12.512 c 0,14.54933 -3.0516,26.29867 -9.1549,35.248 -6.10336,8.94933 -15.05537,13.42667 -26.85604,13.432 -11.90067,0 -20.92867,-4.476 -27.084,-13.428 -6.15533,-8.952 -9.23267,-20.70133 -9.232,-35.248 v -12.512 c 0,-14.748 3.07733,-26.548 9.232,-35.4 6.15467,-8.852 15.18267,-13.277 27.084,-13.275 11.8,0 20.75201,4.425 26.85604,13.275 z m 65.0859,35.252 v 12.512 c 0,23.498 6.3577,42.29167 19.073,56.381 12.7153,14.08933 30.5683,21.134 53.559,21.134 22.986,0 40.788,-7.04467 53.406,-21.134 12.618,-14.08933 18.9247,-32.934 18.92,-56.534 v -12.512 c 0,-22.786 -6.3567,-41.27467 -19.07,-55.466 -12.7133,-14.19133 -30.4653,-21.28667 -53.256,-21.286 -22.788,0 -40.59,7.121 -53.406,21.363 -12.816,14.242 -19.2247,32.756 -19.226,55.542 z m 99.488,-35.248 c 6.1,8.85 9.15,20.65 9.15,35.4 v 12.512 c 0,14.54933 -3.05,26.29867 -9.15,35.248 -6.1,8.94933 -15.0513,13.42533 -26.854,13.428 -11.902,0 -20.9303,-4.476 -27.085,-13.428 -6.1547,-8.952 -9.2317,-20.70133 -9.231,-35.248 v -12.512 c 0,-14.748 3.077,-26.548 9.231,-35.4 6.154,-8.852 15.1823,-13.277 27.085,-13.275 11.796,0 20.748,4.425 26.856,13.275 z m 60.36,-38.91 v 28.534 h 22.58 v 87.433 c 0,11.19067 1.5,20.066 4.5,26.626 3,6.56 8.2633,11.51933 15.79,14.878 7.5333,3.35733 17.86,5.03567 30.98,5.035 5.6165,0.0281 11.2267,-0.38008 16.78,-1.221 v -27.313 c -2.6346,0.2633 -5.283,0.36349 -7.93,0.3 -9.06,0 -15.3933,-1.55133 -19,-4.654 -3.6067,-3.10267 -5.41,-8.87533 -5.41,-17.318 v -83.766 h 31.43 v -28.534 h -31.43 v -39.063 h -35.1 v 39.063 z m 112.92,66.07 c 2.7106,5.40675 6.7891,10.00994 11.83,13.352 5.1384,3.48791 10.6997,6.30789 16.55,8.392 6.8129,2.35367 13.7707,4.26498 20.83,5.722 0.92,0.2 2.29,0.458 4.12,0.763 5.7,1.12067 10.38,2.16333 14.04,3.128 3.773,1.006 7.4691,2.28093 11.06,3.815 3.2735,1.2435 6.1297,3.3856 8.24,6.18 1.8406,2.74752 2.7743,6.00258 2.67,9.308 0,6.10333 -2.5667,11.18933 -7.7,15.258 -5.1333,4.06867 -12.5867,6.102 -22.36,6.1 -9.05,0 -16.3233,-1.93333 -21.82,-5.8 -5.2949,-3.53844 -8.7571,-9.23449 -9.46,-15.564 h -35.09 c 0,14.44467 5.7467,25.965 17.24,34.561 11.4933,8.596 27.16,12.894 47,12.894 20.85,0 37.2767,-4.57767 49.28,-13.733 12.0033,-9.15533 18.0067,-21.922 18.01,-38.3 0.1628,-6.54654 -1.1675,-13.04417 -3.89,-19 -2.5799,-5.31995 -6.5675,-9.83179 -11.53,-13.046 -5.0761,-3.35541 -10.5606,-6.0476 -16.32,-8.011 -6.8767,-2.24783 -13.918,-3.95699 -21.06,-5.112 -0.71,-0.1 -1.78,-0.305 -3.2,-0.61 -6.41,-1.11933 -11.04,-2.035 -13.89,-2.747 -3.7786,-1.01235 -7.4977,-2.23492 -11.14,-3.662 -4.58,-1.72933 -7.86,-3.91633 -9.84,-6.561 -2.029,-2.78667 -3.0769,-6.16731 -2.98,-9.613 -0.2085,-5.99264 2.6385,-11.68157 7.56,-15.107 5.03,-3.662 11.77,-5.493 20.22,-5.493 9.66,0 16.78,2.238 21.36,6.714 4.4991,4.31042 8.0084,11.61955 8.5222,17.829 h 32.2 c 0,-14.85067 -6.0855,-28.229 -16.7722,-37.131 -10.6867,-8.902 -25.4867,-13.35267 -44.4,-13.352 -8.0791,-0.0585 -16.1309,0.94206 -23.95,2.976 -7.1122,1.84417 -13.8865,4.80569 -20.07,8.774 -5.9826,3.89846 -10.8458,9.28899 -14.11,15.64 -3.5659,7.01168 -5.3485,14.79425 -5.19,22.659 -0.1439,6.48938 1.2407,12.92161 4.042,18.777 z m 136.12,-66.07 v 28.534 h 22.58 v 87.433 c 0,11.19067 1.5,20.066 4.5,26.626 3,6.56 8.2667,11.51933 15.8,14.878 7.52,3.35733 17.8433,5.03567 30.97,5.035 5.6198,0.0278 11.2333,-0.38047 16.79,-1.221 v -27.313 c -2.638,0.26292 -5.2897,0.36311 -7.94,0.3 -9.05,0 -15.3833,-1.55133 -19,-4.654 -3.6167,-3.10267 -5.42,-8.87533 -5.41,-17.318 v -83.766 h 31.43 v -28.534 h -31.43 v -39.063 h -35.1 v 39.063 z m 153.592,161.438 v -94.3 c 0,-25.43 12.0033,-38.14567 36.01,-38.147 7.22,0 12.2033,0.40667 14.95,1.22 v -31.584 c -3.9247,-0.72629 -7.9087,-1.08385 -11.9,-1.068 -10.07,0 -18.36,2.44133 -24.87,7.324 -6.51,4.88267 -10.9867,10.42667 -13.43,16.632 h -1.53 v -21.515 h -36.01 v 161.438 z m 157.71,-19.684 v 19.684 h 34.18 v -109.711 c 0,-11.902 -2.8233,-21.998 -8.47,-30.288 -5.5191,-8.18515 -13.3576,-14.53497 -22.51,-18.235 -9.36,-3.86667 -20.2433,-5.8 -32.65,-5.8 -9.5913,-0.1598 -19.1471,1.20521 -28.31,4.044 -8.19,2.696 -14.75,6.43433 -19.68,11.215 -4.7893,4.56873 -8.6264,10.04064 -11.29,16.1 -2.6576,6.20799 -4.1329,12.85757 -4.35,19.607 h 33.87 c 0.2804,-6.55548 3.3299,-12.68393 8.39,-16.861 5.09,-4.22 11.9567,-6.33067 20.6,-6.332 9.16,0 16.23,2.39067 21.21,7.172 4.99,4.782 7.4833,11.59733 7.48,20.446 v 14.953 h -40.28 c -18.31,0.102 -32.4267,4.349 -42.35,12.741 -9.91,8.392 -14.8667,19.91233 -14.87,34.561 0,14.854 4.88,26.705 14.64,35.553 9.76,8.848 22.5267,13.273 38.3,13.275 21.4667,0 36.37,-7.375 44.71,-22.125 h 1.38 z m -54.78,-11.139 c -5.5,-4.17 -8.2467,-10.121 -8.24,-17.853 0,-6.71267 2.3633,-12.053 7.09,-16.021 4.7267,-3.968 11.67,-5.95167 20.83,-5.951 h 33.57 v 17.547 c 0.1817,7.95173 -3.3438,15.536 -9.54,20.523 -6.36,5.34133 -14.2667,8.01167 -23.72,8.011 -7.84,0 -14.5033,-2.08533 -19.99,-6.256 z m 248.5,12.818 c 11.39,-13.428 17.0867,-31.993 17.09,-55.695 v -14.19 c 0,-23.8 -5.6733,-42.39033 -17.02,-55.771 -11.3467,-13.38067 -26.2233,-20.069 -44.63,-20.065 -10.68,0 -20.0633,2.33967 -28.15,7.019 -7.916,4.50602 -14.4378,11.10537 -18.85,19.074 h -1.37 v -23.8 h -35.25 v 215.907 h 36.17 v -77.21 h 1.37 c 4.1956,7.65489 10.4612,13.97421 18.08,18.235 7.78,4.42467 16.86,6.637 27.24,6.637 18.82,0 33.9267,-6.71367 45.32,-20.141 z m -82.17,-22.126 c -6.77,-8.64467 -10.1533,-20.44467 -10.15,-35.4 v -11.292 c 0,-14.546 3.33,-26.117 9.99,-34.713 6.67,-8.59533 15.7,-12.89333 27.09,-12.894 11.19,0 19.9133,4.17067 26.17,12.512 6.2567,8.34133 9.3833,20.09067 9.38,35.248 v 11.139 c 0,15.46667 -3.1767,27.394 -9.53,35.782 -6.3533,8.388 -14.8733,12.584 -25.56,12.588 -11.5,0 -20.63,-4.32333 -27.39,-12.97 z"
     inkscape:connector-curvature="0"
     sodipodi:nodetypes="scccsccscscccscssccccccsccccccccccsssscsscsccccssccscssccccsssscsscsccssscscssccccccsscccccsscccccccccccccccccsccccssscccccccccccscccsccccccccccsscccccsccccccccccsccccscccccccccsccccccccccccccccsccccccsccccccccsscccccccccccscccsccscsscc" />
  <g
     id="solid"
     transform="matrix(0.81372549,0,0,0.81372549,1,1.0000001)">
    <path
       id="bg"
       style="fill:#563d7c"
       d="m 612,510 c 0,56.1 -45.9,102 -102,102 H 102 C 45.9,612 0,566.1 0,510 V 102 C 0,45.9 45.9,0 102,0 h 408 c 56.1,0 102,45.9 102,102 z" />
    <path
       id="B"
       style="fill:#ffffff"
       d="m 166.3,133 h 173.5 c 32,0 57.7,7.3 77,22 19.3,14.7 29,36.8 29,66.5 0,18 -4.4,33.4 -13.2,46.2 -8.8,12.8 -21.4,22.8 -37.8,29.8 v 1 c 22,4.7 38.7,15.1 50,31.2 11.3,16.2 17,36.4 17,60.8 0,14 -2.5,27.1 -7.5,39.2 -5,12.2 -12.8,22.7 -23.5,31.5 -10.7,8.8 -24.3,15.8 -41,21 -16.7,5.2 -36.5,7.8 -59.5,7.8 h -164 z m 62.5,149.5 h 102 c 15,0 27.5,-4.2 37.5,-12.8 10,-8.6 15,-20.8 15,-36.8 0,-18 -4.5,-30.7 -13.5,-38 -9,-7.3 -22,-11 -39,-11 h -102 z m 0,156.5 h 110.5 c 19,0 33.8,-4.9 44.2,-14.8 10.5,-9.8 15.8,-23.8 15.8,-41.8 0,-17.7 -5.2,-31.2 -15.8,-40.8 -10.6,-9.6 -25.2,-14.2 -44.2,-14.2 H 228.8 Z" />
  </g>
</svg>
