<?xml version="1.0" encoding="UTF-8" standalone="no"?>
<svg
   xmlns:dc="http://purl.org/dc/elements/1.1/"
   xmlns:cc="http://creativecommons.org/ns#"
   xmlns:rdf="http://www.w3.org/1999/02/22-rdf-syntax-ns#"
   xmlns:svg="http://www.w3.org/2000/svg"
   xmlns="http://www.w3.org/2000/svg"
   xmlns:sodipodi="http://sodipodi.sourceforge.net/DTD/sodipodi-0.dtd"
   xmlns:inkscape="http://www.inkscape.org/namespaces/inkscape"
   id="svg3799"
   version="1.1"
   viewBox="0 0 2000 500"
   height="500"
   width="2000"
   sodipodi:docname="express-name.svg"
   inkscape:version="0.92.2 (5c3e80d, 2017-08-06)">
  <metadata
     id="metadata34">
    <rdf:RDF>
      <cc:Work
         rdf:about="">
        <dc:format>image/svg+xml</dc:format>
        <dc:type
           rdf:resource="http://purl.org/dc/dcmitype/StillImage" />
        <dc:title>Bootstrap Brand</dc:title>
      </cc:Work>
    </rdf:RDF>
  </metadata>
  <defs
     id="defs32">
    <style
       id="style170">
      .cls-1 {
        fill: #323330;
        fill-rule: evenodd;
      }
    </style>
  </defs>
  <sodipodi:namedview
     pagecolor="#ffffff"
     bordercolor="#666666"
     borderopacity="1"
     objecttolerance="10"
     gridtolerance="10"
     guidetolerance="10"
     inkscape:pageopacity="0"
     inkscape:pageshadow="2"
     inkscape:window-width="2160"
     inkscape:window-height="1346"
     id="namedview30"
     showgrid="false"
     showguides="true"
     inkscape:guide-bbox="true"
     inkscape:zoom="0.7145314"
     inkscape:cx="990.68396"
     inkscape:cy="330.36725"
     inkscape:window-x="-11"
     inkscape:window-y="-11"
     inkscape:window-maximized="1"
     inkscape:current-layer="svg3799">
    <sodipodi:guide
       position="618.76217,250.16395"
       orientation="0,1"
       id="guide36"
       inkscape:locked="false" />
    <sodipodi:guide
       position="1402.5235,297.87234"
       orientation="0,1"
       id="guide38"
       inkscape:locked="false" />
    <sodipodi:guide
       position="876.42256,136.44236"
       orientation="0,1"
       id="guide40"
       inkscape:locked="false" />
    <sodipodi:guide
       position="1092.5285,216.72439"
       orientation="0,1"
       id="guide42"
       inkscape:locked="false" />
    <sodipodi:guide
       position="777.92553,344.75507"
       orientation="0,1"
       id="guide46"
       inkscape:locked="false" />
    <sodipodi:guide
       position="499.7526,426.52152"
       orientation="1,0"
       id="guide82"
       inkscape:locked="false" />
    <sodipodi:guide
       position="720.43543,375.06185"
       orientation="1,0"
       id="guide84"
       inkscape:locked="false" />
    <sodipodi:guide
       position="1000.4948,530.43048"
       orientation="1,0"
       id="guide189"
       inkscape:locked="false" />
  </sodipodi:namedview>
  <title
     id="title23">Bootstrap Brand</title>
  <style
     id="style105">.st1{fill:#00d8ff}.st2{fill:none;stroke:#00d8ff;stroke-width:144.7456;stroke-miterlimit:10}</style>
  <text
     xml:space="preserve"
     style="font-style:normal;font-variant:normal;font-weight:300;font-stretch:normal;font-size:40px;line-height:1.25;font-family:'Helvetica Neue LT Std';-inkscape-font-specification:'Helvetica Neue LT Std Light';letter-spacing:0px;word-spacing:0px;fill:#000000;fill-opacity:1;stroke:none"
     x="827.31323"
     y="-121.47452"
     id="text166"><tspan
       sodipodi:role="line"
       id="tspan164"
       x="827.31323"
       y="-87.91452"
       style="font-style:oblique;font-variant:normal;font-weight:500;font-stretch:expanded;font-family:'Helvetica Neue LT Std';-inkscape-font-specification:'Helvetica Neue LT Std Medium Oblique Expanded'" /></text>
  <path
     d="m 537.59867,278.48711 c 2.13817,-43.46232 29.42125,-70.32266 63.45118,-70.32266 40.7719,0 62.53972,32.29496 62.23183,70.32266 z m 131.81406,6.03331 c 1.84005,-42.55574 -19.92534,-82.39662 -68.97623,-82.39662 -35.56208,0 -68.97622,29.56788 -68.97622,81.18947 0,46.18453 20.23322,81.79304 68.97622,81.18946 35.86753,0 62.84518,-21.73117 67.13861,-57.34456 h -6.13349 c -5.21225,33.50211 -29.12314,51.31613 -61.61846,51.31613 -44.75745,0 -61.61847,-32.29496 -62.23183,-73.9441 h 131.8214 z m 69.91212,-8.45006 -53.02667,-70.32266 h -7.98089 l 57.32747,74.86292 -63.15796,80.2731 h 7.66322 l 59.16751,-75.75239 59.47296,75.75239 h 7.66321 l -63.14329,-80.2731 57.63291,-74.8507 h -7.35776 z m 149.30558,82.39661 c -38.31856,0 -63.76399,-27.46634 -63.76399,-75.45427 0,-40.14144 23.29755,-74.85069 63.76399,-74.85069 40.77422,0 61.00749,35.00982 61.00749,74.85069 0,35.91885 -17.78228,75.45671 -61.00749,75.45671 z m -63.76399,-41.05291 h 0.61329 c 7.35775,28.06993 29.73661,47.08378 63.1507,47.08378 43.53311,0 67.13855,-38.03014 67.13855,-81.49003 0,-46.78076 -25.44543,-80.88401 -67.13855,-80.88401 -32.1875,0 -55.17955,19.92044 -63.1507,47.08378 h -0.61329 v -43.45744 h -6.13107 v 208.55367 h 6.13107 V 317.4214 Z M 989.50082,273.0476 c 0,-33.80267 19.30468,-67.00422 62.53968,-64.89048 v -6.03576 c -37.7075,-1.20715 -56.10072,19.01385 -61.92628,41.95217 h -0.6134 v -38.32339 h -6.13106 v 155.13358 h 6.13106 v -87.8288 z m 70.20768,5.43217 c 2.1456,-43.46232 29.4311,-70.32265 63.4586,-70.32265 40.772,0 62.5397,32.29495 62.2318,70.32265 z m 131.8216,6.03576 c 1.84,-42.55573 -19.9255,-82.3966 -68.9763,-82.3966 -35.5621,0 -68.9762,29.56786 -68.9762,81.18946 0,46.18452 20.2332,81.79303 68.9762,81.18945 35.8676,0 62.8451,-21.73116 67.1361,-57.34455 h -6.131 c -5.2098,33.5021 -29.1231,51.31612 -61.6185,51.31612 -44.7574,0 -61.6184,-32.29496 -62.2319,-73.9441 h 131.8216 z M 1324.9006,251.617 c 0,-34.40625 -22.0733,-49.49807 -57.0221,-49.49807 -39.2397,0 -53.3417,21.73115 -53.3417,38.93428 0,16.59954 6.1309,26.55976 19.0065,31.99195 8.8922,3.92446 20.2331,6.94234 35.2565,10.56378 26.9776,6.63933 54.2607,10.86437 54.2607,38.33072 0,26.55977 -28.2043,36.51998 -50.8884,36.51998 -36.481,0 -57.6353,-16.29898 -57.6353,-50.70523 h -6.1311 c 0,38.93429 22.3787,56.74099 63.7785,56.74099 27.2831,0 57.0197,-12.07396 57.0197,-43.15931 0,-29.56787 -26.3645,-35.61342 -50.5832,-41.6516 -16.861,-4.52804 -29.4309,-7.24292 -40.4663,-11.46795 -10.7301,-4.22502 -17.4744,-11.77093 -17.4744,-27.16333 0,-5.43218 3.0667,-32.89854 47.2108,-32.89854 30.0444,0 50.8909,12.37453 50.8909,43.46233 h 6.131 z m 141.9502,0 c 0,-34.40625 -22.0733,-49.49807 -57.0196,-49.49807 -39.2422,0 -53.3419,21.73115 -53.3419,38.93428 0,16.59954 6.1311,26.55976 19.0066,31.99195 8.8898,3.92446 20.2332,6.94234 35.254,10.56378 26.9778,6.63933 54.2486,10.86437 54.2486,38.33072 0,26.55977 -28.2019,36.51998 -50.8885,36.51998 -36.4809,0 -57.6329,-16.29898 -57.6329,-50.70523 h -6.1286 c 0,38.93429 22.3786,56.74099 63.764,56.74099 27.283,0 57.0196,-12.07396 57.0196,-43.15931 0,-29.56787 -26.3644,-35.61342 -50.5832,-41.6516 -16.861,-4.52804 -29.4309,-7.24292 -40.4663,-11.46795 -10.73,-4.22502 -17.4744,-11.77093 -17.4744,-27.16333 0,-5.43218 3.0643,-32.89854 47.2108,-32.89854 30.042,0 50.8886,12.37453 50.8886,43.46233 h 6.1309 z"
     class="cls-1"
     id="express"
     inkscape:connector-curvature="0"
     style="fill:#323330;fill-rule:evenodd;stroke-width:2.44362569" />
  <flowRoot
     xml:space="preserve"
     id="flowRoot181"
     style="fill:black;fill-opacity:1;stroke:none;font-family:'Helvetica Neue LT Std';font-style:normal;font-weight:300;font-size:40px;line-height:1.25;letter-spacing:0px;word-spacing:0px;-inkscape-font-specification:'Helvetica Neue LT Std Light';font-stretch:normal;font-variant:normal"><flowRegion
       id="flowRegion183"><rect
         id="rect185"
         width="331.51904"
         height="114.79465"
         x="21.7714"
         y="-294.6561" /></flowRegion><flowPara
       id="flowPara187"></flowPara></flowRoot></svg>
