<?xml version="1.0" encoding="UTF-8" standalone="no"?>
<svg
   xmlns:dc="http://purl.org/dc/elements/1.1/"
   xmlns:cc="http://creativecommons.org/ns#"
   xmlns:rdf="http://www.w3.org/1999/02/22-rdf-syntax-ns#"
   xmlns:svg="http://www.w3.org/2000/svg"
   xmlns="http://www.w3.org/2000/svg"
   width="2000"
   height="500"
   viewBox="0 0 2000 500"
   version="1.1"
   id="svg3799">
  <metadata
     id="metadata34">
    <rdf:RDF>
      <cc:Work
         rdf:about="">
        <dc:format>image/svg+xml</dc:format>
        <dc:type
           rdf:resource="http://purl.org/dc/dcmitype/StillImage" />
        <dc:title>Bootstrap Brand</dc:title>
      </cc:Work>
    </rdf:RDF>
  </metadata>
  <defs
     id="defs32" />
  <title
     id="title23">Bootstrap Brand</title>
  <style
     id="style105">.st1{fill:#00d8ff}.st2{fill:none;stroke:#00d8ff;stroke-width:144.7456;stroke-miterlimit:10}</style>
  <g
     transform="matrix(-0.16595352,0,0,0.16582907,580.93237,-50.115521)"
     id="g127">
    <circle
       style="fill:#00d8ff"
       class="st1"
       cx="1806.5"
       cy="1807.1"
       r="302.60001"
       id="circle107" />
    <path
       style="fill:none;stroke:#00d8ff;stroke-width:144.74560547;stroke-miterlimit:10"
       class="st2"
       d="m 1806.5,1191.9 c 406.2,0 783.6,58.3 1068.1,156.2 342.8,118 553.6,296.9 553.6,458.9 0,168.8 -223.4,358.9 -591.5,480.8 -278.3,92.2 -644.6,140.4 -1030.2,140.4 -395.4,0 -769.7,-45.2 -1051.2,-141.4 C 399.2,2165.1 184.7,1972.6 184.7,1807 c 0,-160.7 201.3,-338.2 539.3,-456 285.6,-99.5 672.3,-159.1 1082.5,-159.1 z"
       id="path109" />
    <path
       style="fill:none;stroke:#00d8ff;stroke-width:144.74560547;stroke-miterlimit:10"
       class="st2"
       d="m 1271,1501.3 c 202.9,-351.9 442,-649.7 669,-847.2 273.5,-238 533.8,-331.2 674.1,-250.3 146.2,84.3 199.3,372.8 121,752.7 -59.2,287.2 -200.4,628.5 -393.1,962.6 -197.5,342.5 -423.7,644.2 -647.6,840 -283.3,247.7 -557.3,337.3 -700.7,254.6 -139.2,-80.3 -192.4,-343.3 -125.7,-695 56.4,-297.4 198,-662.1 403,-1017.4 z"
       id="path111" />
    <path
       style="fill:none;stroke:#00d8ff;stroke-width:144.74560547;stroke-miterlimit:10"
       class="st2"
       d="M 1271.5,2119.8 C 1068,1768.2 929.4,1412.4 871.6,1117.1 802,761.3 851.2,489.2 991.4,408.1 c 146.1,-84.6 422.5,13.5 712.5,271 219.3,194.7 444.4,487.5 637.6,821.3 198.1,342.2 346.6,688.8 404.3,980.5 73.1,369.2 13.9,651.3 -129.4,734.2 -139.1,80.5 -393.5,-4.7 -664.9,-238.2 -229.2,-197.3 -474.5,-502.1 -680,-857.1 z"
       id="path113" />
  </g>
  <text
     id="text131"
     y="363.37128"
     x="859.27124"
     style="font-style:normal;font-weight:normal;font-size:290.77954102px;line-height:1.25;font-family:sans-serif;letter-spacing:0px;word-spacing:0px;fill:#000000;fill-opacity:1;stroke:none;stroke-width:7.26948833"
     xml:space="preserve"><tspan
       dx="-158.69302"
       style="font-style:normal;font-variant:normal;font-weight:normal;font-stretch:normal;font-family:'Helvetica Neue';-inkscape-font-specification:'Helvetica Neue';letter-spacing:-7.26948833px;stroke-width:7.26948833"
       y="363.37128"
       x="859.27124"
       id="tspan129">React</tspan></text>
</svg>
