<?xml version="1.0" encoding="UTF-8" standalone="no"?>
<svg
   xmlns:dc="http://purl.org/dc/elements/1.1/"
   xmlns:cc="http://creativecommons.org/ns#"
   xmlns:rdf="http://www.w3.org/1999/02/22-rdf-syntax-ns#"
   xmlns:svg="http://www.w3.org/2000/svg"
   xmlns="http://www.w3.org/2000/svg"
   xmlns:sodipodi="http://sodipodi.sourceforge.net/DTD/sodipodi-0.dtd"
   xmlns:inkscape="http://www.inkscape.org/namespaces/inkscape"
   id="svg3799"
   version="1.1"
   viewBox="0 0 2000 500"
   height="500"
   width="2000"
   sodipodi:docname="redux-name.svg"
   inkscape:version="0.92.2 (5c3e80d, 2017-08-06)">
  <metadata
     id="metadata74">
    <rdf:RDF>
      <cc:Work
         rdf:about="">
        <dc:format>image/svg+xml</dc:format>
        <dc:type
           rdf:resource="http://purl.org/dc/dcmitype/StillImage" />
      </cc:Work>
    </rdf:RDF>
  </metadata>
  <defs
     id="defs72" />
  <sodipodi:namedview
     pagecolor="#ffffff"
     bordercolor="#666666"
     borderopacity="1"
     objecttolerance="10"
     gridtolerance="10"
     guidetolerance="10"
     inkscape:pageopacity="0"
     inkscape:pageshadow="2"
     inkscape:window-width="2160"
     inkscape:window-height="1346"
     id="namedview70"
     showgrid="false"
     showguides="true"
     inkscape:guide-bbox="true"
     inkscape:zoom="0.844"
     inkscape:cx="1068.8736"
     inkscape:cy="180.35513"
     inkscape:window-x="-11"
     inkscape:window-y="-11"
     inkscape:window-maximized="1"
     inkscape:current-layer="svg3799">
    <sodipodi:guide
       position="-36.137441,250"
       orientation="0,1"
       id="guide76"
       inkscape:locked="false" />
    <sodipodi:guide
       position="-55.687204,137.44076"
       orientation="0,1"
       id="guide78"
       inkscape:locked="false" />
    <sodipodi:guide
       position="-29.620853,345.97156"
       orientation="0,1"
       id="guide80"
       inkscape:locked="false" />
    <sodipodi:guide
       position="720.37915,332.93839"
       orientation="1,0"
       id="guide86"
       inkscape:locked="false" />
  </sodipodi:namedview>
  <title
     id="title62">Redux Brand</title>
  <path
     id="Redux"
     style="fill:#323330;stroke-width:0.77923471"
     d="M 768.25599,251.31849 V 189.0676 h 19.32837 q 18.6164,0 27.49975,7.78117 8.88334,7.78116 8.88256,21.61418 a 39.562949,40.112579 0 0 1 -1.98964,12.89615 26.258444,26.623241 0 0 1 -6.39532,10.44655 30.142536,30.561293 0 0 1 -11.29862,6.98869 q -6.8937,2.52337 -16.69873,2.5218 h -19.32837 z m 77.31038,38.18474 a 42.3551,42.94352 0 0 0 -7.39053,-8.71722 43.549967,44.154987 0 0 0 -8.81137,-6.12402 69.481834,70.447114 0 0 0 17.83633,-9.94282 60.740886,61.584732 0 0 0 13.00115,-13.76083 58.775237,59.591775 0 0 0 7.95856,-16.79105 65.644949,66.556925 0 0 0 2.70083,-19.30814 64.518957,65.41529 0 0 0 -4.54808,-24.78486 48.707088,49.383754 0 0 0 -14.56747,-19.74048 q -10.0194,-8.35551 -25.86532,-13.04053 -15.84592,-4.68502 -38.29611,-4.67952 h -67.3645 v 209.94548 h 48.03613 v -77.66648 h 12.22263 q 5.54174,0 8.52658,1.80465 a 16.684029,16.915813 0 0 1 5.40089,5.6917 l 34.39268,60.95232 q 5.25617,9.22251 17.33873,9.22173 h 43.49197 z m 74.8974,-19.59689 q 2.27143,-13.68784 9.37943,-20.96528 7.1081,-7.27742 19.6124,-7.27664 a 27.472658,27.854323 0 0 1 12.0802,2.44961 22.456383,22.768359 0 0 1 8.0298,6.41199 24.855404,25.200709 0 0 1 4.4057,9.00596 38.937656,39.478599 0 0 1 1.3504,10.37436 h -54.85483 z m 84.41853,25.93748 a 14.258696,14.456786 0 0 0 4.9033,-0.72107 5.9526672,6.0353649 0 0 0 3.056,-2.5932 12.838631,13.016992 0 0 0 1.5632,-5.0436 62.204289,63.068465 0 0 0 0.4265,-8.21349 q 0,-16.13589 -4.9033,-28.89082 a 60.336922,61.175156 0 0 0 -13.6435,-21.54198 58.28692,59.096674 0 0 0 -20.8947,-13.40068 75.906567,76.961103 0 0 0 -26.7901,-4.61126 q -16.9146,0 -30.34223,5.90825 a 68.014562,68.959458 0 0 0 -37.3783,39.48174 77.822688,78.903843 0 0 0 -5.04489,28.3863 q 0,19.88564 5.89769,34.87127 5.8978,14.98562 16.0595,25.07202 a 66.743855,67.671097 0 0 0 23.7341,15.20218 82.773184,83.923114 0 0 0 29.06373,5.115 124.82105,126.55513 0 0 0 15.846,-1.08044 87.773981,88.993385 0 0 0 16.6283,-3.89097 76.454472,77.516619 0 0 0 16.2011,-7.78038 65.474696,66.384306 0 0 0 14.7099,-12.89694 l -12.7907,-15.99388 q -2.7024,-3.89097 -7.9593,-3.89097 a 16.547053,16.776934 0 0 0 -7.6034,1.87291 q -3.624,1.87447 -7.9585,4.17893 a 66.506275,67.430217 0 0 1 -9.877,4.17893 41.968161,42.551206 0 0 1 -13.2171,1.87291 q -14.357,0 -23.4485,-8.42927 -9.0915,-8.42926 -11.22743,-27.16149 H 1004.88 Z m 112.843,20.60514 a 59.8517,60.683193 0 0 1 -5.7577,6.12011 29.859297,30.274119 0 0 1 -6.1833,4.39391 30.820453,31.248628 0 0 1 -7.1738,2.66775 38.08639,38.615507 0 0 1 -8.7448,0.93605 20.976729,21.268149 0 0 1 -9.5187,-2.16087 18.443827,18.700059 0 0 1 -7.3209,-7.13305 q -3.0646,-4.97141 -4.7594,-13.04054 a 95.3634,96.688241 0 0 1 -1.7102,-19.88484 q 0,-12.24571 2.1359,-20.89389 2.1243,-8.64425 5.8969,-14.04485 a 22.856478,23.174013 0 0 1 8.8841,-7.85335 25.938832,26.299188 0 0 1 11.2213,-2.44961 34.311415,34.788088 0 0 1 12.2272,2.23383 27.897517,28.285085 0 0 1 10.8034,7.85257 v 63.25756 z m 0,-169.59831 v 75.64921 a 52.583441,53.313959 0 0 0 -14.2162,-8.93378 q -7.8123,-3.3127 -19.3314,-3.31428 a 56.725235,57.513293 0 0 0 -25.7237,5.90747 59.739488,60.569422 0 0 0 -19.9661,16.35481 75.066136,76.108996 0 0 0 -12.8618,24.78406 99.474238,100.85619 0 0 0 -4.5481,31.05248 q 0,18.15552 4.0505,32.34946 4.0504,14.19394 11.1562,23.9916 a 49.10873,49.790975 0 0 0 16.9123,14.9864 45.395665,46.026326 0 0 0 21.3203,5.18719 62.314179,63.179882 0 0 0 13.9995,-1.51277 55.346958,56.115868 0 0 0 12.0802,-4.32252 58.149943,58.957794 0 0 0 10.4396,-6.70073 87.010938,88.219742 0 0 0 9.2401,-8.64582 l 3.4128,11.38339 q 2.5538,7.49477 10.8034,7.4932 h 27.2869 V 146.85457 h -44.0569 z m 153.4831,66.28309 v 106.48512 a 54.66672,55.42618 0 0 1 -12.2892,8.43005 30.792593,31.220381 0 0 1 -13.5738,3.09772 q -9.6734,0 -14.6417,-6.05185 -4.9683,-6.05184 -4.9761,-17.14727 v -94.81377 h -44.0568 v 94.81377 a 73.369022,74.388305 0 0 0 3.2735,22.76678 51.053485,51.762748 0 0 0 9.6657,18.01195 43.963218,44.573979 0 0 0 15.702,11.88791 q 9.3097,4.24797 21.39,4.25033 a 60.239413,61.076292 0 0 0 13.1404,-1.36839 57.808663,58.611773 0 0 0 11.229,-3.74661 53.909094,54.658029 0 0 0 9.7354,-5.76388 84.776753,85.954518 0 0 0 8.8144,-7.56461 l 2.5538,8.64505 q 2.5654,7.49477 10.8033,7.4932 h 27.287 v -149.4255 z m 156.896,70.17406 47.4696,-70.17406 h -40.3546 a 9.8878352,10.025202 0 0 0 -5.4713,1.44058 14.596881,14.799669 0 0 0 -4.1944,4.61127 l -18.7588,33.28552 c -1.0447,1.72618 -1.9889,3.43589 -2.8479,5.11578 a 35.466041,35.958755 0 0 0 -2.1281,5.115 l -26.2964,-44.23659 a 10.679512,10.827878 0 0 0 -3.9081,-4.10675 c -1.4704,-0.81523 -3.761,-1.22481 -6.8875,-1.22481 h -42.3543 l 47.4696,72.19134 -49.4585,77.23416 h 39.2279 a 10.021716,10.160943 0 0 0 6.9571,-2.44962 30.232306,30.65231 0 0 0 4.6897,-5.33546 l 21.6067,-37.1765 a 37.892147,38.418565 0 0 0 2.1282,-4.03456 32.663056,33.116829 0 0 0 1.7102,-4.61049 l 26.2886,45.82233 a 17.323252,17.563916 0 0 0 4.6201,5.47592 12.015999,12.182932 0 0 0 7.6072,2.30525 h 42.3466 z"
     inkscape:connector-curvature="0" />
  <g
     id="Redux-logo"
     style="fill:#764abc"
     transform="matrix(6.7024129,0,0,6.7024129,-74.734427,-89.142094)">
    <path
       id="ll"
       d="m 65.6,65.4 c 2.9,-0.3 5.1,-2.8 5,-5.8 -0.1,-3 -2.6,-5.4 -5.6,-5.4 h -0.2 c -3.1,0.1 -5.5,2.7 -5.4,5.8 0.1,1.5 0.7,2.8 1.6,3.7 -3.4,6.7 -8.6,11.6 -16.4,15.7 -5.3,2.8 -10.8,3.8 -16.3,3.1 -4.5,-0.6 -8,-2.6 -10.2,-5.9 -3.2,-4.9 -3.5,-10.2 -0.8,-15.5 1.9,-3.8 4.9,-6.6 6.8,-8 -0.4,-1.3 -1,-3.5 -1.3,-5.1 -14.5,10.5 -13,24.7 -8.6,31.4 3.3,5 10,8.1 17.4,8.1 2,0 4,-0.2 6,-0.7 12.8,-2.5 22.5,-10.1 28,-21.4 z" />
    <path
       id="lr"
       d="M 83.2,53 C 75.6,44.1 64.4,39.2 51.6,39.2 H 50 c -0.9,-1.8 -2.8,-3 -4.9,-3 h -0.2 c -3.1,0.1 -5.5,2.7 -5.4,5.8 0.1,3 2.6,5.4 5.6,5.4 h 0.2 c 2.2,-0.1 4.1,-1.5 4.9,-3.4 H 52 c 7.6,0 14.8,2.2 21.3,6.5 5,3.3 8.6,7.6 10.6,12.8 1.7,4.2 1.6,8.3 -0.2,11.8 -2.8,5.3 -7.5,8.2 -13.7,8.2 -4,0 -7.8,-1.2 -9.8,-2.1 -1.1,1 -3.1,2.6 -4.5,3.6 4.3,2 8.7,3.1 12.9,3.1 9.6,0 16.7,-5.3 19.4,-10.6 2.9,-5.8 2.7,-15.8 -4.8,-24.3 z" />
    <path
       id="t"
       d="m 32.4,67.1 c 0.1,3 2.6,5.4 5.6,5.4 h 0.2 c 3.1,-0.1 5.5,-2.7 5.4,-5.8 -0.1,-3 -2.6,-5.4 -5.6,-5.4 h -0.2 c -0.2,0 -0.5,0 -0.7,0.1 -4.1,-6.8 -5.8,-14.2 -5.2,-22.2 0.4,-6 2.4,-11.2 5.9,-15.5 2.9,-3.7 8.5,-5.5 12.3,-5.6 10.6,-0.2 15.1,13 15.4,18.3 1.3,0.3 3.5,1 5,1.5 C 69.3,21.7 59.3,13.3 49.7,13.3 c -9,0 -17.3,6.5 -20.6,16.1 -4.6,12.8 -1.6,25.1 4,34.8 -0.5,0.7 -0.8,1.8 -0.7,2.9 z" />
  </g>
</svg>
