<?xml version="1.0" encoding="UTF-8" standalone="no"?>
<svg
   xmlns:dc="http://purl.org/dc/elements/1.1/"
   xmlns:cc="http://creativecommons.org/ns#"
   xmlns:rdf="http://www.w3.org/1999/02/22-rdf-syntax-ns#"
   xmlns:svg="http://www.w3.org/2000/svg"
   xmlns="http://www.w3.org/2000/svg"
   xmlns:sodipodi="http://sodipodi.sourceforge.net/DTD/sodipodi-0.dtd"
   xmlns:inkscape="http://www.inkscape.org/namespaces/inkscape"
   id="svg3799"
   version="1.1"
   viewBox="0 0 2000 500"
   height="500"
   width="2000"
   sodipodi:docname="wordpress-name.svg"
   inkscape:version="0.92.2 (5c3e80d, 2017-08-06)">
  <metadata
     id="metadata34">
    <rdf:RDF>
      <cc:Work
         rdf:about="">
        <dc:format>image/svg+xml</dc:format>
        <dc:type
           rdf:resource="http://purl.org/dc/dcmitype/StillImage" />
        <dc:title>Bootstrap Brand</dc:title>
      </cc:Work>
    </rdf:RDF>
  </metadata>
  <defs
     id="defs32">
    <clipPath
       id="clipPath18"
       clipPathUnits="userSpaceOnUse">
      <path
         inkscape:connector-curvature="0"
         id="path20"
         d="m 275.945,28.6719 -29.961,9.9179 c 0,0 3.821,151.6402 -50.867,162.2582 -36.062,41.785 5.551,1784.892 136.559,5.972 0,0 -44.84,-22.515 -53.328,-60.75 -8.485,-38.261 -2.403,-117.3981 -2.403,-117.3981 z" />
    </clipPath>
    <linearGradient
       id="linearGradient22"
       spreadMethod="pad"
       gradientTransform="matrix(344.394,-116.194,-104.815,-309.067,77.7619,575.995)"
       gradientUnits="userSpaceOnUse"
       y2="0"
       x2="1"
       y1="0"
       x1="0">
      <stop
         id="stop24"
         offset="0"
         style="stop-opacity:1;stop-color:#929669" />
      <stop
         id="stop26"
         offset="0.230769"
         style="stop-opacity:1;stop-color:#929669" />
      <stop
         id="stop28"
         offset="1"
         style="stop-opacity:1;stop-color:#fdfcf1" />
    </linearGradient>
    <clipPath
       id="clipPath36"
       clipPathUnits="userSpaceOnUse">
      <path
         inkscape:connector-curvature="0"
         id="path38"
         d="m 292.098,175.105 c 0,0 260.343,171.469 199.351,527.575 -58.738,258.718 -197.418,343.77 -212.32,376.24 -16.406,22.98 -32.93,63.71 -32.93,63.71 l 11.074,-720.864 c 0,0 -22.906,-220.11 34.825,-246.661 z" />
    </clipPath>
    <linearGradient
       id="linearGradient40"
       spreadMethod="pad"
       gradientTransform="matrix(241.166,-936.211,-1007.33,-161.502,203.932,1135.85)"
       gradientUnits="userSpaceOnUse"
       y2="0"
       x2="1"
       y1="0"
       x1="0">
      <stop
         id="stop42"
         offset="0"
         style="stop-opacity:1;stop-color:#45aa3a" />
      <stop
         id="stop44"
         offset="1"
         style="stop-opacity:1;stop-color:#3d9439" />
    </linearGradient>
    <clipPath
       id="clipPath52"
       clipPathUnits="userSpaceOnUse">
      <path
         inkscape:connector-curvature="0"
         id="path54"
         d="m 230.742,165.523 c 0,0 -244.2108,166.598 -230.159969,460.543 C 14.6367,920.02 187.121,1064.55 220.715,1090.77 c 21.719,23.15 22.617,32.07 24.297,54.91 15.222,-32.7 12.691,-488.422 14.304,-541.688 6.258,-207.351 -11.484,-399.328 -28.574,-438.469 z" />
    </clipPath>
    <linearGradient
       id="linearGradient56"
       spreadMethod="pad"
       gradientTransform="matrix(422.095,95.9042,131.897,-394.11,-25.0834,595.855)"
       gradientUnits="userSpaceOnUse"
       y2="0"
       x2="1"
       y1="0"
       x1="0">
      <stop
         id="stop58"
         offset="0"
         style="stop-opacity:1;stop-color:#41a83b" />
      <stop
         id="stop60"
         offset="1"
         style="stop-opacity:1;stop-color:#5ebc44" />
    </linearGradient>
    <linearGradient
       id="linearGradient22-4"
       spreadMethod="pad"
       gradientTransform="matrix(154.41607,52.097947,-46.995941,138.57649,34.866954,254.59656)"
       gradientUnits="userSpaceOnUse"
       y2="0"
       x2="1"
       y1="0"
       x1="0">
      <stop
         id="stop24-2"
         offset="0"
         style="stop-opacity:1;stop-color:#929669" />
      <stop
         id="stop26-7"
         offset="0.230769"
         style="stop-opacity:1;stop-color:#929669" />
      <stop
         id="stop28-9"
         offset="1"
         style="stop-opacity:1;stop-color:#fdfcf1" />
    </linearGradient>
    <linearGradient
       id="linearGradient56-7"
       spreadMethod="pad"
       gradientTransform="matrix(189.25489,-43.000602,59.138707,176.70725,-11.24583,245.69193)"
       gradientUnits="userSpaceOnUse"
       y2="0"
       x2="1"
       y1="0"
       x1="0">
      <stop
         id="stop58-1"
         offset="0"
         style="stop-opacity:1;stop-color:#41a83b" />
      <stop
         id="stop60-4"
         offset="1"
         style="stop-opacity:1;stop-color:#5ebc44" />
    </linearGradient>
    <linearGradient
       id="linearGradient40-6"
       spreadMethod="pad"
       gradientTransform="matrix(108.13169,419.7693,-451.65693,72.412712,91.437892,3.5741491)"
       gradientUnits="userSpaceOnUse"
       y2="0"
       x2="1"
       y1="0"
       x1="0">
      <stop
         id="stop42-1"
         offset="0"
         style="stop-opacity:1;stop-color:#45aa3a" />
      <stop
         id="stop44-4"
         offset="1"
         style="stop-opacity:1;stop-color:#3d9439" />
    </linearGradient>
  </defs>
  <sodipodi:namedview
     pagecolor="#ffffff"
     bordercolor="#666666"
     borderopacity="1"
     objecttolerance="10"
     gridtolerance="10"
     guidetolerance="10"
     inkscape:pageopacity="0"
     inkscape:pageshadow="2"
     inkscape:window-width="2160"
     inkscape:window-height="1346"
     id="namedview30"
     showgrid="false"
     showguides="true"
     inkscape:guide-bbox="true"
     inkscape:zoom="8.084"
     inkscape:cx="685.52497"
     inkscape:cy="317.41744"
     inkscape:window-x="-11"
     inkscape:window-y="-11"
     inkscape:window-maximized="1"
     inkscape:current-layer="layer1">
    <sodipodi:guide
       position="618.76217,250.16395"
       orientation="0,1"
       id="guide36"
       inkscape:locked="false" />
    <sodipodi:guide
       position="1402.5235,297.87234"
       orientation="0,1"
       id="guide38"
       inkscape:locked="false" />
    <sodipodi:guide
       position="876.42256,136.44236"
       orientation="0,1"
       id="guide40"
       inkscape:locked="false" />
    <sodipodi:guide
       position="1092.5285,216.72439"
       orientation="0,1"
       id="guide42"
       inkscape:locked="false" />
    <sodipodi:guide
       position="777.92553,344.75507"
       orientation="0,1"
       id="guide46"
       inkscape:locked="false" />
    <sodipodi:guide
       position="499.7526,426.52152"
       orientation="1,0"
       id="guide82"
       inkscape:locked="false" />
    <sodipodi:guide
       position="720.43543,375.06185"
       orientation="1,0"
       id="guide84"
       inkscape:locked="false" />
  </sodipodi:namedview>
  <title
     id="title23">Bootstrap Brand</title>
  <style
     id="style105">.st1{fill:#00d8ff}.st2{fill:none;stroke:#00d8ff;stroke-width:144.7456;stroke-miterlimit:10}</style>
  <g
     transform="matrix(1.0666667,0,0,1.0666667,1009.9117,-559.91865)"
     id="layer1"
     inkscape:label="Capa 1">
    <path
       inkscape:connector-curvature="0"
       id="path4165"
       style="fill:#464646;fill-opacity:1;stroke-width:1.72833109"
       d="m -799.29134,776.37068 c -19.87743,-59.19527 -36.13514,-108.72424 -36.1283,-110.06465 0,-1.39202 5.14625,-2.86398 11.98504,-3.43305 14.06477,-1.17006 20.66379,-5.88501 16.04723,-11.46565 -2.53609,-3.06568 -7.14314,-3.30287 -38.09986,-1.96228 -19.36805,0.8389 -35.21484,0.83075 -35.21484,-0.0192 0,-3.71968 13.84007,-20.86716 28.40161,-35.18872 37.27704,-36.66221 87.02039,-56.90463 139.8372,-56.90463 23.89771,0 41.76137,3.02415 66.54688,11.26541 20.08942,6.6798 51.45374,24.39436 63.46027,35.84222 l 5.98519,5.7067 -9.49086,2.77642 c -12.07066,3.53098 -21.90734,13.59306 -24.88439,25.45395 -3.10169,12.35845 0.69473,24.80675 14.86973,48.75829 25.26239,42.68541 25.41942,59.6037 1.29412,139.33807 -8.96352,29.62467 -16.78441,54.35175 -17.37951,54.94886 -0.59511,0.59724 -1.57185,-0.2708 -2.17049,-1.92889 -3.30095,-9.14297 -72.3481,-214.66342 -72.3481,-215.34565 0,-0.44858 4.12503,-0.91269 9.16684,-1.03125 14.90693,-0.35093 19.95141,-2.50549 19.95141,-8.52189 v -5.29659 l -58.71703,-0.10736 c -46.08172,-0.083 -58.94729,0.49492 -59.78655,2.68915 -2.19358,5.7353 1.49049,9.10078 11.38843,10.40348 5.5298,0.72778 11.41912,1.50489 13.08696,1.72678 1.85354,0.24653 9.20191,17.1868 18.89866,43.56658 l 15.86581,43.16325 -22.10789,66.65595 c -12.15928,36.66092 -22.60476,66.64372 -23.21237,66.6285 -0.60752,-0.0174 -17.36786,-48.46014 -37.24519,-107.65528 z m 186.04581,156.89117 c 0,-0.30899 14.71034,-42.91132 32.68967,-94.67169 40.38824,-116.27381 43.10167,-126.04141 43.23765,-155.65031 0.0919,-19.72965 0.47966,-22.07379 3.074,-18.51439 5.07207,6.95905 15.35806,35.9781 18.94768,53.45556 3.92058,19.08877 4.50327,57.56906 1.15885,76.51327 -7.43128,42.09196 -29.9817,83.88776 -60.60926,112.33578 -16.44223,15.27212 -38.49859,30.47256 -38.49859,26.53178 z m -207.06311,-3.3601 c -47.76752,-30.74871 -80.69034,-80.05542 -90.4802,-135.50746 -3.55857,-20.15688 -2.70893,-56.14517 1.84872,-78.30119 3.89757,-18.94703 12.06715,-41.57369 14.2278,-39.40594 0.92297,0.92599 95.97269,261.3736 95.97269,262.97661 0,2.63796 -7.76721,-0.8775 -21.56901,-9.76202 z m 80.96303,29.57462 c -22.31453,-2.86902 -31.93602,-5.86291 -30.54333,-9.50364 0.64417,-1.68439 13.93082,-40.33211 29.52587,-85.88396 15.59492,-45.55198 29.15438,-84.28228 30.13229,-86.06762 1.3896,-2.5366 2.31908,-1.82752 4.25482,3.24591 9.61476,25.20036 60.37686,165.99747 60.37686,167.46567 0,4.47671 -49.35424,13.6005 -70.04293,12.94841 -4.77648,-0.15062 -15.44291,-1.14273 -23.70358,-2.20477 z m 64.61093,18.65045 c 112.42967,-19.66976 195.01454,-128.34678 182.47684,-240.12945 -6.28779,-56.06127 -26.46365,-97.46872 -66.95746,-137.41806 -42.40651,-41.83633 -94.02637,-63.0862 -153.24796,-63.0862 -40.90906,0 -79.11143,10.63731 -114.71838,31.94279 -22.16209,13.26072 -55.80668,45.8856 -69.69614,67.58369 -52.19103,81.5329 -48.79793,179.41335 8.88902,256.41705 49.10878,65.55344 132.75798,98.77317 213.25408,84.69018 z m -79.4534,12.97174 c -47.72657,-9.04624 -89.31135,-30.92942 -123.30379,-64.88639 -90.59468,-90.50021 -92.62054,-236.40474 -4.57402,-329.41661 33.64342,-35.54104 77.28195,-59.62935 124.2009,-68.55868 23.21195,-4.41754 67.5914,-4.41754 90.80346,0 85.22266,16.21901 155.61981,81.13038 179.79723,165.78592 32.00655,112.06948 -21.43624,229.33833 -127.17027,279.04819 -29.35569,13.80135 -54.73406,19.46147 -91.55796,20.42019 -21.69622,0.56504 -36.45766,-0.16794 -48.19555,-2.39262 z" />
    <g
       id="g456"
       transform="matrix(2.9483421,0,0,2.9483421,-663.88069,607.24321)">
      <g
         id="Layer_1" />
      <g
         id="Layer_2">
        <g
           id="g429">
          <path
             id="path403"
             d="m 313.19,48.227 h -21.257 v 2.255 c 6.649,0 7.718,1.425 7.718,9.857 V 75.54 c 0,8.431 -1.068,9.975 -7.718,9.975 -5.105,-0.712 -8.55,-3.444 -13.3,-8.669 l -5.462,-5.937 c 7.362,-1.308 11.28,-5.938 11.28,-11.164 0,-6.53 -5.58,-11.518 -16.031,-11.518 h -20.9 v 2.255 c 6.649,0 7.718,1.425 7.718,9.857 V 75.54 c 0,8.431 -1.069,9.975 -7.718,9.975 v 2.256 h 23.631 v -2.256 c -6.649,0 -7.718,-1.544 -7.718,-9.975 v -4.274 h 2.018 l 13.182,16.505 h 34.557 c 16.981,0 24.344,-9.024 24.344,-19.832 0,-10.806 -7.362,-19.712 -24.344,-19.712 z M 263.434,67.582 V 51.79 h 4.868 c 5.343,0 7.719,3.681 7.719,7.956 0,4.157 -2.376,7.837 -7.719,7.837 h -4.868 z m 50.113,16.508 h -0.832 c -4.274,0 -4.868,-1.068 -4.868,-6.531 V 51.79 c 0,0 5.225,0 5.7,0 12.35,0 14.605,9.024 14.605,16.031 0,7.243 -2.256,16.269 -14.605,16.269 z"
             inkscape:connector-curvature="0"
             style="fill:#00749a" />
          <path
             id="path405"
             d="m 181.378,71.978 8.194,-24.227 c 2.376,-7.006 1.307,-9.024 -6.293,-9.024 v -2.376 h 22.325 v 2.376 c -7.481,0 -9.262,1.781 -12.231,10.45 L 179.834,89.79 h -1.543 L 166.177,52.62 153.828,89.79 h -1.544 L 139.103,49.177 c -2.85,-8.669 -4.75,-10.45 -11.638,-10.45 v -2.376 h 26.363 v 2.376 c -7.007,0 -8.908,1.662 -6.413,9.024 l 7.956,24.227 11.994,-35.627 h 2.257 z"
             inkscape:connector-curvature="0"
             style="fill:#00749a" />
          <path
             id="path407"
             d="m 221.752,89.314 c -13.062,0 -23.75,-9.618 -23.75,-21.376 0,-11.637 10.689,-21.257 23.75,-21.257 13.063,0 23.75,9.62 23.75,21.257 0,11.758 -10.687,21.376 -23.75,21.376 z m 0,-38.949 c -10.924,0 -14.725,9.855 -14.725,17.574 0,7.839 3.801,17.576 14.725,17.576 11.045,0 14.845,-9.737 14.845,-17.576 0,-7.719 -3.8,-17.574 -14.845,-17.574 z"
             inkscape:connector-curvature="0"
             style="fill:#00749a" />
          <path
             id="path409"
             d="m 366.864,85.396 v 2.375 H 339.67 v -2.375 c 7.957,0 9.382,-2.018 9.382,-13.895 V 52.502 c 0,-11.877 -1.425,-13.776 -9.382,-13.776 V 36.35 h 24.581 c 12.231,0 19.002,6.294 19.002,14.727 0,8.194 -6.771,14.606 -19.002,14.606 h -6.769 V 71.5 c 0,11.878 1.425,13.896 9.382,13.896 z m -2.613,-44.771 h -6.769 v 20.664 h 6.769 c 6.651,0 9.738,-4.631 9.738,-10.212 0,-5.7 -3.087,-10.452 -9.738,-10.452 z"
             inkscape:connector-curvature="0"
             style="fill:#464342" />
          <path
             id="path411"
             d="m 464.833,76.609 -0.594,2.137 c -1.068,3.919 -2.376,5.344 -10.807,5.344 h -1.663 c -6.174,0 -7.243,-1.425 -7.243,-9.856 v -5.462 c 9.263,0 9.976,0.83 9.976,7.006 h 2.256 V 58.083 h -2.256 c 0,6.175 -0.713,7.006 -9.976,7.006 V 51.79 h 6.53 c 8.433,0 9.738,1.425 10.807,5.344 l 0.595,2.255 h 1.899 l -0.83,-11.162 h -34.914 v 2.255 c 6.649,0 7.719,1.425 7.719,9.857 V 75.54 c 0,7.713 -0.908,9.656 -6.151,9.933 -4.983,-0.761 -8.404,-3.479 -13.085,-8.627 l -5.463,-5.937 c 7.363,-1.308 11.282,-5.938 11.282,-11.164 0,-6.53 -5.581,-11.518 -16.031,-11.518 h -20.9 v 2.255 c 6.649,0 7.718,1.425 7.718,9.857 V 75.54 c 0,8.431 -1.068,9.975 -7.718,9.975 v 2.256 h 23.632 v -2.256 c -6.649,0 -7.719,-1.544 -7.719,-9.975 v -4.274 h 2.019 l 13.181,16.505 h 48.806 l 0.713,-11.161 h -1.783 z M 401.896,67.582 V 51.79 h 4.868 c 5.344,0 7.72,3.681 7.72,7.956 0,4.157 -2.376,7.837 -7.72,7.837 h -4.868 z"
             inkscape:connector-curvature="0"
             style="fill:#464342" />
          <path
             id="path413"
             d="m 488.939,89.314 c -4.75,0 -8.907,-2.493 -10.688,-4.038 -0.594,0.595 -1.662,2.376 -1.899,4.038 h -2.257 V 72.928 h 2.375 c 0.951,7.837 6.412,12.468 13.419,12.468 3.8,0 6.888,-2.137 6.888,-5.699 0,-3.087 -2.731,-5.463 -7.6,-7.719 l -6.769,-3.206 c -4.751,-2.258 -8.313,-6.177 -8.313,-11.401 0,-5.7 5.344,-10.568 12.707,-10.568 3.919,0 7.243,1.425 9.263,3.087 0.593,-0.475 1.187,-1.782 1.544,-3.208 h 2.256 v 14.014 h -2.494 c -0.832,-5.582 -3.919,-10.213 -10.212,-10.213 -3.325,0 -6.414,1.9 -6.414,4.87 0,3.087 2.494,4.749 8.195,7.362 l 6.53,3.206 c 5.701,2.731 7.956,7.127 7.956,10.689 0,7.48 -6.531,12.704 -14.487,12.704 z"
             inkscape:connector-curvature="0"
             style="fill:#464342" />
          <path
             id="path415"
             d="m 525.514,89.314 c -4.751,0 -8.908,-2.493 -10.688,-4.038 -0.594,0.595 -1.662,2.376 -1.899,4.038 H 510.67 V 72.928 h 2.375 c 0.95,7.837 6.412,12.468 13.419,12.468 3.8,0 6.888,-2.137 6.888,-5.699 0,-3.087 -2.731,-5.463 -7.601,-7.719 l -6.769,-3.206 c -4.75,-2.258 -8.313,-6.177 -8.313,-11.401 0,-5.7 5.344,-10.568 12.707,-10.568 3.919,0 7.243,1.425 9.263,3.087 0.593,-0.475 1.187,-1.782 1.542,-3.208 h 2.257 v 14.014 h -2.493 c -0.832,-5.582 -3.919,-10.213 -10.212,-10.213 -3.325,0 -6.414,1.9 -6.414,4.87 0,3.087 2.494,4.749 8.195,7.362 l 6.53,3.206 c 5.701,2.731 7.956,7.127 7.956,10.689 0,7.48 -6.531,12.704 -14.486,12.704 z"
             inkscape:connector-curvature="0"
             style="fill:#464342" />
          <g
             id="g427" />
        </g>
      </g>
    </g>
  </g>
</svg>
